<svg xmlns="http://www.w3.org/2000/svg" xmlns:xlink="http://www.w3.org/1999/xlink" viewBox="0 0 1220.695 788.696"><defs><path id="a" d="M0 0h1220.695v788.696H0z"/></defs><clipPath id="b"><use xlink:href="#a" overflow="visible"/></clipPath><g clip-path="url(#b)"><linearGradient id="c" gradientUnits="userSpaceOnUse" x1="1175.863" y1="-139.024" x2="134.165" y2="902.674" gradientTransform="rotate(180 632.68 388.086)"><stop offset="0" stop-color="#fff"/><stop offset=".209" stop-color="#f1f2f2"/><stop offset=".501" stop-color="#e9eaeb"/><stop offset=".87" stop-color="#e6e7e8"/></linearGradient><path fill="url(#c)" d="M-25.62-11.382h1271.936v811.46H-25.621z"/><path opacity=".5" fill="#FFF" d="M471.099 992.602l291.183-291.183V299.98a25 25 0 00-7.323-17.677L471.1-1.557H59.305l-291.183 291.182v411.794L59.305 992.602h411.794z"/><linearGradient id="d" gradientUnits="userSpaceOnUse" x1="587.808" y1="282.673" x2="1412.27" y2="282.673"><stop offset="0" stop-color="#fff"/><stop offset="1" stop-color="#fff" stop-opacity=".1"/></linearGradient><path opacity=".6" fill="url(#d)" d="M1159.5-129.558H840.577a27.259 27.259 0 00-19.275 7.984L595.792 103.938a27.259 27.259 0 00-7.984 19.274v318.922c0 7.23 2.872 14.163 7.984 19.275L821.303 686.92a27.259 27.259 0 0019.275 7.984h318.921c7.23 0 14.163-2.872 19.275-7.984l225.512-225.511a27.259 27.259 0 007.984-19.275V123.212c0-7.23-2.872-14.162-7.984-19.274l-225.512-225.512a27.259 27.259 0 00-19.275-7.984z"/><linearGradient id="e" gradientUnits="userSpaceOnUse" x1="-201.808" y1="695.173" x2="383.221" y2="695.173"><stop offset=".303" stop-color="#fff"/><stop offset=".728" stop-color="#fff" stop-opacity=".6"/></linearGradient><path fill="url(#e)" d="M200.58 402.659H-19.167a27.259 27.259 0 00-19.275 7.983l-155.383 155.384a27.259 27.259 0 00-7.984 19.275v219.745c0 7.23 2.872 14.162 7.984 19.274l155.383 155.384a27.259 27.259 0 0019.275 7.984H200.58c7.23 0 14.163-2.872 19.275-7.984L375.237 824.32a27.259 27.259 0 007.984-19.275V585.3c0-7.23-2.872-14.163-7.984-19.275L219.854 410.642a27.259 27.259 0 00-19.275-7.983z"/><linearGradient id="f" gradientUnits="userSpaceOnUse" x1="899.45" y1="-52.917" x2="1423.906" y2="855.468"><stop offset=".406" stop-color="#fff" stop-opacity=".3"/><stop offset=".567" stop-color="#fff" stop-opacity=".7"/></linearGradient><path fill="url(#f)" d="M950.492-81.314L679.09 190.09a27.259 27.259 0 00-7.984 19.275v383.822c0 7.23 2.872 14.163 7.984 19.275l271.403 271.403a27.259 27.259 0 0019.275 7.984h383.822c7.23 0 14.163-2.872 19.275-7.984l271.403-271.403a27.259 27.259 0 007.984-19.275V209.364c0-7.23-2.872-14.163-7.984-19.275L1372.864-81.314a27.258 27.258 0 00-19.275-7.984H969.767a27.259 27.259 0 00-19.275 7.984z"/></g></svg>