<svg xmlns="http://www.w3.org/2000/svg" xmlns:xlink="http://www.w3.org/1999/xlink" viewBox="0 0 1220.695 788.696"><defs><path id="a" d="M0 0h1220.695v788.696H0z"/></defs><clipPath id="b"><use xlink:href="#a" overflow="visible"/></clipPath><g clip-path="url(#b)"><linearGradient id="c" gradientUnits="userSpaceOnUse" x1="1175.863" y1="-2612.726" x2="134.165" y2="-1571.028" gradientTransform="rotate(180 632.68 -848.765)"><stop offset=".032" stop-color="#cd163f"/><stop offset=".193" stop-color="#d0233e"/><stop offset=".438" stop-color="#d73e3c"/><stop offset=".735" stop-color="#e36034"/><stop offset="1" stop-color="#f58025"/></linearGradient><path fill="url(#c)" d="M-25.62-11.382h1271.936v811.46H-25.621z"/><linearGradient id="d" gradientUnits="userSpaceOnUse" x1="531.004" y1="955.905" x2="-.6" y2="35.139" gradientTransform="rotate(90 265.202 495.522)"><stop offset="0" stop-color="#cd163f" stop-opacity="0"/><stop offset="1" stop-color="#cd163f"/></linearGradient><path opacity=".6" fill="url(#d)" d="M-224.556 708.742L51.982 985.28a25 25 0 0017.678 7.322h391.084a25 25 0 0017.677-7.322L754.96 708.742a25 25 0 007.323-17.678V299.98a25 25 0 00-7.323-17.677L478.421 5.765a25 25 0 00-17.677-7.323H69.66a25 25 0 00-17.678 7.323l-276.538 276.538a25 25 0 00-7.322 17.677v391.084a25 25 0 007.322 17.678z"/><linearGradient id="e" gradientUnits="userSpaceOnUse" x1="587.808" y1="282.673" x2="1412.27" y2="282.673" gradientTransform="rotate(-45 1000.034 282.672)"><stop offset=".079" stop-color="#f58025" stop-opacity=".2"/><stop offset=".661" stop-color="#f58025"/></linearGradient><path opacity=".4" fill="url(#e)" d="M821.303-121.574L595.792 103.938a27.259 27.259 0 00-7.984 19.274v318.922c0 7.23 2.872 14.163 7.984 19.275L821.303 686.92a27.259 27.259 0 0019.275 7.984h318.921c7.23 0 14.163-2.872 19.275-7.984l225.512-225.511a27.259 27.259 0 007.984-19.275V123.212c0-7.23-2.872-14.162-7.984-19.274l-225.512-225.512a27.259 27.259 0 00-19.275-7.984H840.578a27.259 27.259 0 00-19.275 7.984z"/><linearGradient id="f" gradientUnits="userSpaceOnUse" x1="-201.808" y1="695.173" x2="383.221" y2="695.173"><stop offset=".303" stop-color="#cd163f"/><stop offset="1" stop-color="#cd163f" stop-opacity=".5"/></linearGradient><path fill="url(#f)" d="M200.58 402.659H-19.167a27.259 27.259 0 00-19.275 7.983l-155.383 155.384a27.259 27.259 0 00-7.984 19.275v219.745c0 7.23 2.872 14.162 7.984 19.274l155.383 155.384a27.259 27.259 0 0019.275 7.984H200.58c7.23 0 14.163-2.872 19.275-7.984L375.237 824.32a27.259 27.259 0 007.984-19.275V585.3c0-7.23-2.872-14.163-7.984-19.275L219.854 410.642a27.259 27.259 0 00-19.275-7.983z"/><linearGradient id="g" gradientUnits="userSpaceOnUse" x1="671.105" y1="401.275" x2="1652.251" y2="401.275" gradientTransform="rotate(-45 1161.673 401.273)"><stop offset=".154" stop-color="#f58025" stop-opacity=".1"/><stop offset="1" stop-color="#f58025"/></linearGradient><path opacity=".6" fill="url(#g)" d="M671.105 209.364v383.822c0 7.23 2.872 14.163 7.984 19.275l271.403 271.403a27.259 27.259 0 0019.275 7.984h383.822c7.23 0 14.163-2.872 19.275-7.984l271.403-271.403a27.259 27.259 0 007.984-19.275V209.364c0-7.23-2.872-14.163-7.984-19.275L1372.864-81.314a27.258 27.258 0 00-19.275-7.984H969.767a27.259 27.259 0 00-19.275 7.984L679.09 190.09a27.259 27.259 0 00-7.984 19.275z"/></g></svg>