<svg width="3767" height="1118" xmlns="http://www.w3.org/2000/svg" xmlns:xlink="http://www.w3.org/1999/xlink" xml:space="preserve" overflow="hidden"><defs><linearGradient x1="765.896" y1="526.562" x2="839.248" y2="530.445" gradientUnits="userSpaceOnUse" spreadMethod="reflect" id="fill0"><stop offset="0" stop-color="#CD163F"/><stop offset="0.29" stop-color="#CD163F"/><stop offset="0.92" stop-color="#F58025"/><stop offset="1" stop-color="#F58025"/></linearGradient><linearGradient x1="808.254" y1="636.891" x2="862.901" y2="587.783" gradientUnits="userSpaceOnUse" spreadMethod="reflect" id="fill1"><stop offset="0" stop-color="#CD163F"/><stop offset="0.29" stop-color="#CD163F"/><stop offset="0.92" stop-color="#F58025"/><stop offset="1" stop-color="#F58025"/></linearGradient><linearGradient x1="695.295" y1="512.433" x2="749.942" y2="463.325" gradientUnits="userSpaceOnUse" spreadMethod="reflect" id="fill2"><stop offset="0" stop-color="#CD163F"/><stop offset="0.29" stop-color="#CD163F"/><stop offset="0.92" stop-color="#F58025"/><stop offset="1" stop-color="#F58025"/></linearGradient><linearGradient x1="504" y1="868.199" x2="504" y2="1507.8" gradientUnits="userSpaceOnUse" spreadMethod="reflect" id="stroke3"><stop offset="0" stop-color="#CD163F"/><stop offset="0.00952381" stop-color="#CD173E"/><stop offset="0.0190476" stop-color="#CE193E"/><stop offset="0.0285714" stop-color="#CF1B3E"/><stop offset="0.0380952" stop-color="#CF1D3E"/><stop offset="0.047619" stop-color="#D01F3E"/><stop offset="0.0571429" stop-color="#D1213E"/><stop offset="0.0666667" stop-color="#D1223E"/><stop offset="0.0761905" stop-color="#D2243E"/><stop offset="0.0857143" stop-color="#D3263E"/><stop offset="0.0952381" stop-color="#D3283E"/><stop offset="0.104762" stop-color="#D4293E"/><stop offset="0.114286" stop-color="#D52B3E"/><stop offset="0.12381" stop-color="#D52D3E"/><stop offset="0.133333" stop-color="#D62E3E"/><stop offset="0.142857" stop-color="#D7303E"/><stop offset="0.152381" stop-color="#D7323E"/><stop offset="0.161905" stop-color="#D8333E"/><stop offset="0.171429" stop-color="#D8353E"/><stop offset="0.180952" stop-color="#D9373D"/><stop offset="0.190476" stop-color="#DA383D"/><stop offset="0.2" stop-color="#DA3A3D"/><stop offset="0.209524" stop-color="#DB3B3D"/><stop offset="0.219048" stop-color="#DB3D3D"/><stop offset="0.228571" stop-color="#DC3E3D"/><stop offset="0.238095" stop-color="#DC403D"/><stop offset="0.247619" stop-color="#DD413D"/><stop offset="0.257143" stop-color="#DE433C"/><stop offset="0.266667" stop-color="#DE443C"/><stop offset="0.27619" stop-color="#DF463C"/><stop offset="0.285714" stop-color="#DF473C"/><stop offset="0.295238" stop-color="#E0483C"/><stop offset="0.304762" stop-color="#E04A3C"/><stop offset="0.314286" stop-color="#E14B3C"/><stop offset="0.32381" stop-color="#E14D3B"/><stop offset="0.333333" stop-color="#E24E3B"/><stop offset="0.342857" stop-color="#E24F3B"/><stop offset="0.352381" stop-color="#E3513B"/><stop offset="0.361905" stop-color="#E3523B"/><stop offset="0.371429" stop-color="#E4533A"/><stop offset="0.380952" stop-color="#E4543A"/><stop offset="0.390476" stop-color="#E5563A"/><stop offset="0.4" stop-color="#E5573A"/><stop offset="0.409524" stop-color="#E6583A"/><stop offset="0.419048" stop-color="#E65939"/><stop offset="0.428571" stop-color="#E65A39"/><stop offset="0.438095" stop-color="#E75C39"/><stop offset="0.447619" stop-color="#E75D39"/><stop offset="0.457143" stop-color="#E85E39"/><stop offset="0.466667" stop-color="#E85F38"/><stop offset="0.47619" stop-color="#E96038"/><stop offset="0.485714" stop-color="#E96138"/><stop offset="0.495238" stop-color="#E96238"/><stop offset="0.504762" stop-color="#EA6337"/><stop offset="0.514286" stop-color="#EA6437"/><stop offset="0.52381" stop-color="#EB6537"/><stop offset="0.533333" stop-color="#EB6636"/><stop offset="0.542857" stop-color="#EB6736"/><stop offset="0.552381" stop-color="#EC6836"/><stop offset="0.561905" stop-color="#EC6936"/><stop offset="0.571429" stop-color="#EC6A35"/><stop offset="0.580952" stop-color="#ED6B35"/><stop offset="0.590476" stop-color="#ED6C35"/><stop offset="0.6" stop-color="#ED6C35"/><stop offset="0.609524" stop-color="#EE6D34"/><stop offset="0.619048" stop-color="#EE6E34"/><stop offset="0.628571" stop-color="#EE6F34"/><stop offset="0.638095" stop-color="#EF7033"/><stop offset="0.647619" stop-color="#EF7133"/><stop offset="0.657143" stop-color="#EF7133"/><stop offset="0.666667" stop-color="#EF7232"/><stop offset="0.67619" stop-color="#F07332"/><stop offset="0.685714" stop-color="#F07332"/><stop offset="0.695238" stop-color="#F07431"/><stop offset="0.704762" stop-color="#F07531"/><stop offset="0.714286" stop-color="#F17531"/><stop offset="0.72381" stop-color="#F17630"/><stop offset="0.733333" stop-color="#F17730"/><stop offset="0.742857" stop-color="#F17730"/><stop offset="0.752381" stop-color="#F2782F"/><stop offset="0.761905" stop-color="#F2782F"/><stop offset="0.771429" stop-color="#F2792F"/><stop offset="0.780952" stop-color="#F2792E"/><stop offset="0.790476" stop-color="#F27A2E"/><stop offset="0.8" stop-color="#F37A2D"/><stop offset="0.809524" stop-color="#F37B2D"/><stop offset="0.819048" stop-color="#F37B2D"/><stop offset="0.828571" stop-color="#F37C2C"/><stop offset="0.838095" stop-color="#F37C2C"/><stop offset="0.847619" stop-color="#F37C2B"/><stop offset="0.857143" stop-color="#F37D2B"/><stop offset="0.866667" stop-color="#F47D2B"/><stop offset="0.87619" stop-color="#F47D2A"/><stop offset="0.885714" stop-color="#F47E2A"/><stop offset="0.895238" stop-color="#F47E29"/><stop offset="0.904762" stop-color="#F47E29"/><stop offset="0.914286" stop-color="#F47E29"/><stop offset="0.92381" stop-color="#F47F28"/><stop offset="0.933333" stop-color="#F47F28"/><stop offset="0.942857" stop-color="#F47F27"/><stop offset="0.952381" stop-color="#F47F27"/><stop offset="0.961905" stop-color="#F47F26"/><stop offset="0.971429" stop-color="#F47F26"/><stop offset="0.980952" stop-color="#F47F25"/><stop offset="0.990476" stop-color="#F47F25"/><stop offset="1" stop-color="#F58025"/></linearGradient><linearGradient x1="126" y1="810" x2="882" y2="1566" gradientUnits="userSpaceOnUse" spreadMethod="reflect" id="fill4"><stop offset="0" stop-color="#C3153C"/><stop offset="0.29" stop-color="#C3153C"/><stop offset="0.92" stop-color="#F58025"/><stop offset="1" stop-color="#F58025"/></linearGradient><linearGradient x1="508.58" y1="514.902" x2="600.75" y2="927.036" gradientUnits="userSpaceOnUse" spreadMethod="reflect" id="stroke5"><stop offset="0" stop-color="#ED3A54"/><stop offset="0.0144928" stop-color="#ED3B53"/><stop offset="0.0289855" stop-color="#ED3D53"/><stop offset="0.0434783" stop-color="#ED3F53"/><stop offset="0.057971" stop-color="#ED4153"/><stop offset="0.0724638" stop-color="#EE4353"/><stop offset="0.0869565" stop-color="#EE4453"/><stop offset="0.101449" stop-color="#EE4653"/><stop offset="0.115942" stop-color="#EE4853"/><stop offset="0.130435" stop-color="#EE4A52"/><stop offset="0.144928" stop-color="#EF4B52"/><stop offset="0.15942" stop-color="#EF4D52"/><stop offset="0.173913" stop-color="#EF4F52"/><stop offset="0.188406" stop-color="#EF5051"/><stop offset="0.202899" stop-color="#EF5251"/><stop offset="0.217391" stop-color="#EF5351"/><stop offset="0.231884" stop-color="#F05550"/><stop offset="0.246377" stop-color="#F05650"/><stop offset="0.26087" stop-color="#F05850"/><stop offset="0.275362" stop-color="#F0594F"/><stop offset="0.289855" stop-color="#F05B4F"/><stop offset="0.304348" stop-color="#F05C4E"/><stop offset="0.318841" stop-color="#F15D4E"/><stop offset="0.333333" stop-color="#F15F4E"/><stop offset="0.347826" stop-color="#F1604D"/><stop offset="0.362319" stop-color="#F1614C"/><stop offset="0.376812" stop-color="#F1634C"/><stop offset="0.391304" stop-color="#F1644B"/><stop offset="0.405797" stop-color="#F1654B"/><stop offset="0.42029" stop-color="#F2664A"/><stop offset="0.434783" stop-color="#F2674A"/><stop offset="0.449275" stop-color="#F26949"/><stop offset="0.463768" stop-color="#F26A48"/><stop offset="0.478261" stop-color="#F26B48"/><stop offset="0.492754" stop-color="#F26C47"/><stop offset="0.507246" stop-color="#F26D46"/><stop offset="0.521739" stop-color="#F26E46"/><stop offset="0.536232" stop-color="#F36F45"/><stop offset="0.550725" stop-color="#F37044"/><stop offset="0.565217" stop-color="#F37143"/><stop offset="0.57971" stop-color="#F37243"/><stop offset="0.594203" stop-color="#F37342"/><stop offset="0.608696" stop-color="#F37341"/><stop offset="0.623188" stop-color="#F37440"/><stop offset="0.637681" stop-color="#F3753F"/><stop offset="0.652174" stop-color="#F3763E"/><stop offset="0.666667" stop-color="#F3773E"/><stop offset="0.681159" stop-color="#F4773D"/><stop offset="0.695652" stop-color="#F4783C"/><stop offset="0.710145" stop-color="#F4793B"/><stop offset="0.724638" stop-color="#F4793A"/><stop offset="0.73913" stop-color="#F47A39"/><stop offset="0.753623" stop-color="#F47A38"/><stop offset="0.768116" stop-color="#F47B37"/><stop offset="0.782609" stop-color="#F47B36"/><stop offset="0.797101" stop-color="#F47C35"/><stop offset="0.811594" stop-color="#F47C34"/><stop offset="0.826087" stop-color="#F47D33"/><stop offset="0.84058" stop-color="#F47D32"/><stop offset="0.855072" stop-color="#F47E30"/><stop offset="0.869565" stop-color="#F47E2F"/><stop offset="0.884058" stop-color="#F47E2E"/><stop offset="0.898551" stop-color="#F47F2D"/><stop offset="0.913043" stop-color="#F47F2C"/><stop offset="0.927536" stop-color="#F47F2B"/><stop offset="0.942029" stop-color="#F47F29"/><stop offset="0.956522" stop-color="#F47F28"/><stop offset="0.971014" stop-color="#F47F27"/><stop offset="0.985507" stop-color="#F47F26"/><stop offset="1" stop-color="#F58025"/></linearGradient><linearGradient x1="287.094" y1="549.582" x2="824.041" y2="890.257" gradientUnits="userSpaceOnUse" spreadMethod="reflect" id="fill6"><stop offset="0" stop-color="#CD163F"/><stop offset="0.29" stop-color="#CD163F"/><stop offset="0.92" stop-color="#F58025"/><stop offset="1" stop-color="#F58025"/></linearGradient><linearGradient x1="1568.9" y1="259.001" x2="3207.04" y2="1897.14" gradientUnits="userSpaceOnUse" spreadMethod="reflect" id="fill7"><stop offset="0" stop-color="#ED3A54"/><stop offset="0.19" stop-color="#ED3A54"/><stop offset="0.8" stop-color="#F58025"/><stop offset="1" stop-color="#F58025"/></linearGradient></defs><g transform="translate(-56 -433)"><path d="M764.532 552.327 830.279 493.192 840.612 504.68 774.865 563.815Z" stroke="#ED3A54" stroke-width="18.3333" stroke-miterlimit="8" fill="url(#fill0)" fill-rule="evenodd"/><path d="M791.008 617.7 791.832 602.26 880.147 606.975 879.323 622.415Z" stroke="#ED3A54" stroke-width="18.3333" stroke-miterlimit="8" fill="url(#fill1)" fill-rule="evenodd"/><path d="M712.542 531.624 717.256 443.309 732.696 444.134 727.981 532.448Z" stroke="#ED3A54" stroke-width="18.3333" stroke-miterlimit="8" fill="url(#fill2)" fill-rule="evenodd"/><path d="M61.9999 874 61.9999 1502 946 1502 946 874ZM528.682 1274.8C515.027 1288.38 492.973 1288.38 479.318 1274.8L101.908 897.457C101.862 897.412 101.863 897.337 101.909 897.293 101.931 897.272 101.959 897.259 101.989 897.259L906.011 897.259C906.075 897.26 906.126 897.313 906.126 897.377 906.125 897.407 906.113 897.436 906.092 897.457ZM359.605 1188 85.4609 1462.1C85.4154 1462.14 85.341 1462.14 85.2966 1462.1 85.2757 1462.08 85.263 1462.05 85.263 1462.02L85.263 913.983C85.2641 913.919 85.3165 913.868 85.3804 913.868 85.4107 913.869 85.44 913.881 85.4609 913.901ZM376.053 1204.44 462.871 1291.25C485.58 1313.96 522.403 1313.96 545.119 1291.26 545.122 1291.25 545.126 1291.25 545.129 1291.25L631.947 1204.44 906.092 1478.54C906.137 1478.59 906.136 1478.66 906.091 1478.71 906.069 1478.73 906.041 1478.74 906.011 1478.74L101.989 1478.74C101.925 1478.74 101.874 1478.69 101.874 1478.62 101.875 1478.59 101.887 1478.56 101.908 1478.54ZM648.394 1188 922.539 913.901C922.585 913.856 922.659 913.857 922.703 913.903 922.724 913.925 922.737 913.953 922.737 913.983L922.737 1462.02C922.736 1462.08 922.683 1462.13 922.62 1462.13 922.589 1462.13 922.56 1462.12 922.539 1462.1Z" stroke="url(#stroke3)" stroke-width="11.6016" stroke-miterlimit="8" fill="url(#fill4)" fill-rule="evenodd"/><rect x="270" y="630" width="468" height="392" fill="#FFFFFF"/><path d="M617.941 509.024C613.564 504.613 607.415 502.44 601.238 503.12 595.339 503.737 590.044 507.009 586.854 512.009L371.698 838.144 338.973 887.355 405.867 960.117 457.225 930.58 526.115 893.265 525.744 893.799 567.911 923.537 667.898 870.285 666.43 817.679 665.643 817.705 800.528 744.648 801.307 744.165C806.54 740.417 809.876 734.571 810.44 728.158 811 722.391 809.005 716.669 804.981 712.5ZM358.56 885.795 379.311 854.619 441.195 921.943 408.914 940.521ZM652.17 861.09 569.011 905.398 540.612 885.373 651.178 825.486ZM795.077 726.794C794.925 728.545 794.077 730.161 792.723 731.281L455.017 914.187 388.075 841.356 599.862 520.41C600.532 519.319 601.668 518.597 602.941 518.454 604.346 518.292 605.753 518.749 606.793 519.708L793.88 723.141C794.802 724.12 795.242 725.459 795.077 726.794Z" stroke="url(#stroke5)" stroke-width="17.1875" stroke-miterlimit="8" fill="url(#fill6)" fill-rule="evenodd"/><path d="M2132.98 1148.58C2132.47 1148.51 2131.85 1148.62 2131.11 1148.91 2117.62 1156.24 2110.87 1164.46 2110.87 1173.55 2110.87 1178.24 2112.93 1182.06 2117.03 1184.99 2121.14 1187.92 2126.42 1189.39 2132.87 1189.39 2136.98 1189.39 2140.94 1188.95 2144.75 1188.07 2150.33 1186.6 2156.05 1184.55 2161.91 1181.91 2162.79 1181.62 2163.31 1181.25 2163.45 1180.81 2163.6 1180.37 2163.38 1179.86 2162.79 1179.27L2148.27 1163.87 2134.19 1149.35C2133.9 1148.91 2133.5 1148.65 2132.98 1148.58ZM2529.91 1132.63C2528.45 1132.63 2527.71 1133.36 2527.71 1134.83L2527.71 1181.03C2527.71 1182.5 2528.45 1183.23 2529.91 1183.23L2569.95 1183.23C2590.78 1183.23 2601.19 1174.58 2601.19 1157.27 2601.19 1140.84 2590.93 1132.63 2570.39 1132.63ZM1115.91 1132.63C1114.45 1132.63 1113.71 1133.36 1113.71 1134.83L1113.71 1181.03C1113.71 1182.5 1114.45 1183.23 1115.91 1183.23L1155.95 1183.23C1176.78 1183.23 1187.19 1174.58 1187.19 1157.27 1187.19 1140.84 1176.93 1132.63 1156.39 1132.63ZM2151.79 1017.35C2145.93 1017.35 2141.23 1018.74 2137.71 1021.53 2134.19 1024.32 2132.43 1027.76 2132.43 1031.87 2132.43 1034.22 2133.46 1037.08 2135.51 1040.45 2137.57 1043.82 2142.11 1049.62 2149.15 1057.83 2149.74 1059 2150.77 1059.3 2152.23 1058.71 2158.69 1054.6 2163.6 1050.57 2166.97 1046.61 2170.35 1042.65 2172.03 1038.32 2172.03 1033.63 2172.03 1028.35 2170.2 1024.32 2166.53 1021.53 2162.87 1018.74 2157.95 1017.35 2151.79 1017.35ZM2529.91 1016.91C2528.45 1016.91 2527.71 1017.64 2527.71 1019.11L2527.71 1063.11C2527.71 1064.58 2528.45 1065.31 2529.91 1065.31L2565.99 1065.31C2587.41 1065.31 2598.11 1057.24 2598.11 1041.11 2598.11 1024.98 2587.41 1016.91 2565.99 1016.91ZM1115.91 1016.91C1114.45 1016.91 1113.71 1017.64 1113.71 1019.11L1113.71 1063.11C1113.71 1064.58 1114.45 1065.31 1115.91 1065.31L1151.99 1065.31C1173.41 1065.31 1184.11 1057.24 1184.11 1041.11 1184.11 1024.98 1173.41 1016.91 1151.99 1016.91ZM3270.59 946.071 3480.47 946.071C3482.53 946.071 3484.14 946.658 3485.31 947.831 3486.49 949.005 3487.07 950.618 3487.07 952.671L3487.07 1010.31C3487.07 1012.36 3486.49 1013.98 3485.31 1015.15 3484.14 1016.32 3482.53 1016.91 3480.47 1016.91L3348.91 1016.91C3347.45 1016.91 3346.71 1017.64 3346.71 1019.11L3346.71 1060.47C3346.71 1061.94 3347.45 1062.67 3348.91 1062.67L3430.31 1062.67C3432.37 1062.67 3433.98 1063.26 3435.15 1064.43 3436.33 1065.6 3436.91 1067.22 3436.91 1069.27L3436.91 1126.47C3436.91 1128.52 3436.33 1130.14 3435.15 1131.31 3433.98 1132.48 3432.37 1133.07 3430.31 1133.07L3348.91 1133.07C3347.45 1133.07 3346.71 1133.8 3346.71 1135.27L3346.71 1181.03C3346.71 1182.5 3347.45 1183.23 3348.91 1183.23L3480.47 1183.23C3482.53 1183.23 3484.14 1183.82 3485.31 1184.99 3486.49 1186.16 3487.07 1187.78 3487.07 1189.83L3487.07 1247.47C3487.07 1249.52 3486.49 1251.14 3485.31 1252.31 3484.14 1253.48 3482.53 1254.07 3480.47 1254.07L3270.59 1254.07C3268.54 1254.07 3266.93 1253.48 3265.75 1252.31 3264.58 1251.14 3263.99 1249.52 3263.99 1247.47L3263.99 952.671C3263.99 950.618 3264.58 949.005 3265.75 947.831 3266.93 946.658 3268.54 946.071 3270.59 946.071ZM2999.35 946.071 3232.11 946.071C3234.17 946.071 3235.78 946.658 3236.95 947.831 3238.13 949.005 3238.71 950.618 3238.71 952.671L3238.71 1010.75C3238.71 1012.8 3238.13 1014.42 3236.95 1015.59 3235.78 1016.76 3234.17 1017.35 3232.11 1017.35L3158.19 1017.35C3156.73 1017.35 3155.99 1018.08 3155.99 1019.55L3155.99 1247.47C3155.99 1249.52 3155.41 1251.14 3154.23 1252.31 3153.06 1253.48 3151.45 1254.07 3149.39 1254.07L3079.87 1254.07C3077.82 1254.07 3076.21 1253.48 3075.03 1252.31 3073.86 1251.14 3073.27 1249.52 3073.27 1247.47L3073.27 1019.55C3073.27 1018.08 3072.54 1017.35 3071.07 1017.35L2999.35 1017.35C2997.3 1017.35 2995.69 1016.76 2994.51 1015.59 2993.34 1014.42 2992.75 1012.8 2992.75 1010.75L2992.75 952.671C2992.75 950.618 2993.34 949.005 2994.51 947.831 2995.69 946.658 2997.3 946.071 2999.35 946.071ZM2714.11 946.071 2789.79 946.071C2793.61 946.071 2796.25 947.831 2797.71 951.351L2839.51 1056.51C2840.39 1058.56 2841.27 1058.56 2842.15 1056.51L2883.95 951.351C2885.42 947.831 2888.06 946.071 2891.87 946.071L2967.99 946.071C2971.81 946.071 2973.71 947.538 2973.71 950.471L2972.83 953.991 2882.19 1146.71C2881.9 1147.3 2881.75 1148.18 2881.75 1149.35L2881.75 1246.59C2881.75 1248.64 2881.17 1250.26 2879.99 1251.43 2878.82 1252.6 2877.21 1253.19 2875.15 1253.19L2806.07 1253.19C2804.02 1253.19 2802.41 1252.6 2801.23 1251.43 2800.06 1250.26 2799.47 1248.64 2799.47 1246.59L2799.47 1149.35 2799.03 1146.71 2709.27 953.991 2708.39 950.471C2708.39 947.538 2710.3 946.071 2714.11 946.071ZM2451.59 946.071 2565.99 946.071C2603.54 946.071 2631.77 952.745 2650.69 966.091 2669.61 979.438 2679.07 1001.8 2679.07 1033.19 2679.07 1061.06 2667.93 1081.3 2645.63 1093.91 2644.46 1094.79 2644.46 1095.67 2645.63 1096.55 2658.83 1103.88 2668.51 1113.27 2674.67 1124.71 2680.83 1136.15 2683.91 1149.94 2683.91 1166.07 2683.91 1196.28 2673.35 1218.5 2652.23 1232.73 2631.11 1246.96 2603.69 1254.07 2569.95 1254.07L2451.59 1254.07C2449.54 1254.07 2447.93 1253.48 2446.75 1252.31 2445.58 1251.14 2444.99 1249.52 2444.99 1247.47L2444.99 952.671C2444.99 950.618 2445.58 949.005 2446.75 947.831 2447.93 946.658 2449.54 946.071 2451.59 946.071ZM1415.35 946.071 1648.11 946.071C1650.17 946.071 1651.78 946.658 1652.95 947.831 1654.13 949.005 1654.71 950.618 1654.71 952.671L1654.71 1010.75C1654.71 1012.8 1654.13 1014.42 1652.95 1015.59 1651.78 1016.76 1650.17 1017.35 1648.11 1017.35L1574.19 1017.35C1572.73 1017.35 1571.99 1018.08 1571.99 1019.55L1571.99 1247.47C1571.99 1249.52 1571.41 1251.14 1570.23 1252.31 1569.06 1253.48 1567.45 1254.07 1565.39 1254.07L1495.87 1254.07C1493.82 1254.07 1492.21 1253.48 1491.03 1252.31 1489.86 1251.14 1489.27 1249.52 1489.27 1247.47L1489.27 1019.55C1489.27 1018.08 1488.54 1017.35 1487.07 1017.35L1415.35 1017.35C1413.3 1017.35 1411.69 1016.76 1410.51 1015.59 1409.34 1014.42 1408.75 1012.8 1408.75 1010.75L1408.75 952.671C1408.75 950.618 1409.34 949.005 1410.51 947.831 1411.69 946.658 1413.3 946.071 1415.35 946.071ZM1307.59 946.071 1377.11 946.071C1379.17 946.071 1380.78 946.658 1381.95 947.831 1383.13 949.005 1383.71 950.618 1383.71 952.671L1383.71 1247.47C1383.71 1249.52 1383.13 1251.14 1381.95 1252.31 1380.78 1253.48 1379.17 1254.07 1377.11 1254.07L1307.59 1254.07C1305.54 1254.07 1303.93 1253.48 1302.75 1252.31 1301.58 1251.14 1300.99 1249.52 1300.99 1247.47L1300.99 952.671C1300.99 950.618 1301.58 949.005 1302.75 947.831 1303.93 946.658 1305.54 946.071 1307.59 946.071ZM1037.59 946.071 1151.99 946.071C1189.54 946.071 1217.77 952.745 1236.69 966.091 1255.61 979.438 1265.07 1001.8 1265.07 1033.19 1265.07 1061.06 1253.93 1081.3 1231.63 1093.91 1230.46 1094.79 1230.46 1095.67 1231.63 1096.55 1244.83 1103.88 1254.51 1113.27 1260.67 1124.71 1266.83 1136.15 1269.91 1149.94 1269.91 1166.07 1269.91 1196.28 1259.35 1218.5 1238.23 1232.73 1217.11 1246.96 1189.69 1254.07 1155.95 1254.07L1037.59 1254.07C1035.54 1254.07 1033.93 1253.48 1032.75 1252.31 1031.58 1251.14 1030.99 1249.52 1030.99 1247.47L1030.99 952.671C1030.99 950.618 1031.58 949.005 1032.75 947.831 1033.93 946.658 1035.54 946.071 1037.59 946.071ZM3626.75 942.551C3649.63 942.551 3670.39 946.805 3689.01 955.311 3707.64 963.818 3722.31 975.845 3733.01 991.391 3743.72 1006.94 3749.07 1024.68 3749.07 1044.63L3749.07 1048.59C3749.07 1050.64 3748.49 1052.26 3747.31 1053.43 3746.14 1054.6 3744.53 1055.19 3742.47 1055.19L3674.27 1055.19C3672.22 1055.19 3670.61 1054.6 3669.43 1053.43 3668.26 1052.26 3667.67 1050.64 3667.67 1048.59L3667.67 1048.15C3667.67 1039.35 3663.71 1031.36 3655.79 1024.17 3647.87 1016.98 3637.17 1013.39 3623.67 1013.39 3614.29 1013.39 3606.88 1015.3 3601.45 1019.11 3596.03 1022.92 3593.31 1028.2 3593.31 1034.95 3593.31 1040.23 3595.29 1044.7 3599.25 1048.37 3603.21 1052.04 3609.3 1055.56 3617.51 1058.93 3625.73 1062.3 3638.34 1066.63 3655.35 1071.91 3657.7 1072.79 3668.04 1075.94 3686.37 1081.37 3704.71 1086.8 3720.03 1096.62 3732.35 1110.85 3744.67 1125.08 3750.83 1142.31 3750.83 1162.55 3750.83 1182.2 3745.85 1199.14 3735.87 1213.37 3725.9 1227.6 3711.97 1238.52 3694.07 1246.15 3676.18 1253.78 3655.35 1257.59 3631.59 1257.59 3606.95 1257.59 3585.39 1253.56 3566.91 1245.49 3548.43 1237.42 3534.13 1225.91 3524.01 1210.95 3513.89 1195.99 3508.83 1178.68 3508.83 1159.03L3508.83 1152.87C3508.83 1150.82 3509.42 1149.2 3510.59 1148.03 3511.77 1146.86 3513.38 1146.27 3515.43 1146.27L3583.63 1146.27C3585.69 1146.27 3587.3 1146.86 3588.47 1148.03 3589.65 1149.2 3590.23 1150.82 3590.23 1152.87L3590.23 1155.51C3590.23 1163.72 3594.56 1170.98 3603.21 1177.29 3611.87 1183.6 3623.38 1186.75 3637.75 1186.75 3648.61 1186.75 3656.38 1184.48 3661.07 1179.93 3665.77 1175.38 3668.11 1170.32 3668.11 1164.75 3668.11 1158.3 3665.18 1153.46 3659.31 1150.23 3653.45 1147 3642.74 1143.04 3627.19 1138.35L3614.43 1134.83C3585.39 1126.03 3561.05 1114.3 3541.39 1099.63 3521.74 1084.96 3511.91 1063.7 3511.91 1035.83 3511.91 1017.35 3516.9 1001 3526.87 986.771 3536.85 972.545 3550.56 961.618 3568.01 953.991 3585.47 946.365 3605.05 942.551 3626.75 942.551ZM2150.03 942.551C2169.98 942.551 2187.87 946.291 2203.71 953.771 2219.55 961.251 2232.02 971.738 2241.11 985.231 2250.21 998.725 2254.75 1014.12 2254.75 1031.43 2254.75 1049.62 2250.06 1065.31 2240.67 1078.51 2231.29 1091.71 2218.53 1103.44 2202.39 1113.71 2200.93 1114.59 2200.78 1115.62 2201.95 1116.79 2206.35 1121.78 2213.25 1129.26 2222.63 1139.23 2223.51 1140.4 2224.54 1140.4 2225.71 1139.23 2238.62 1126.32 2247.86 1115.03 2253.43 1105.35 2254.9 1103 2256.66 1101.83 2258.71 1101.83 2260.18 1101.83 2261.35 1102.12 2262.23 1102.71L2313.71 1132.19C2317.23 1134.54 2318.11 1137.47 2316.35 1140.99 2304.33 1160.94 2290.69 1178.68 2275.43 1194.23 2274.26 1195.11 2273.97 1195.84 2274.55 1196.43L2285.99 1208.75 2320.31 1246.15C2321.78 1247.62 2322.51 1248.94 2322.51 1250.11 2322.51 1251.28 2322 1252.24 2320.97 1252.97 2319.95 1253.7 2318.55 1254.07 2316.79 1254.07L2239.35 1254.07C2236.13 1254.07 2233.34 1252.9 2230.99 1250.55L2218.67 1237.35C2217.79 1236.47 2216.77 1236.32 2215.59 1236.91 2187.73 1250.7 2159.13 1257.59 2129.79 1257.59 2101.05 1257.59 2076.7 1250.84 2056.75 1237.35 2036.81 1223.86 2026.83 1203.32 2026.83 1175.75 2026.83 1156.98 2031.6 1141.06 2041.13 1128.01 2050.67 1114.96 2063.79 1103.59 2080.51 1093.91 2082.27 1092.74 2082.42 1091.71 2080.95 1090.83 2068.34 1075.58 2059.98 1063.33 2055.87 1054.09 2051.77 1044.85 2049.71 1034.66 2049.71 1023.51 2049.71 1008.84 2053.89 995.351 2062.25 983.031 2070.61 970.711 2082.42 960.885 2097.67 953.551 2112.93 946.218 2130.38 942.551 2150.03 942.551ZM1791.75 942.551C1814.63 942.551 1835.39 946.805 1854.01 955.311 1872.64 963.818 1887.31 975.845 1898.01 991.391 1908.72 1006.94 1914.07 1024.68 1914.07 1044.63L1914.07 1048.59C1914.07 1050.64 1913.49 1052.26 1912.31 1053.43 1911.14 1054.6 1909.53 1055.19 1907.47 1055.19L1839.27 1055.19C1837.22 1055.19 1835.61 1054.6 1834.43 1053.43 1833.26 1052.26 1832.67 1050.64 1832.67 1048.59L1832.67 1048.15C1832.67 1039.35 1828.71 1031.36 1820.79 1024.17 1812.87 1016.98 1802.17 1013.39 1788.67 1013.39 1779.29 1013.39 1771.88 1015.3 1766.45 1019.11 1761.03 1022.92 1758.31 1028.2 1758.31 1034.95 1758.31 1040.23 1760.29 1044.7 1764.25 1048.37 1768.21 1052.04 1774.3 1055.56 1782.51 1058.93 1790.73 1062.3 1803.34 1066.63 1820.35 1071.91 1822.7 1072.79 1833.04 1075.94 1851.37 1081.37 1869.71 1086.8 1885.03 1096.62 1897.35 1110.85 1909.67 1125.08 1915.83 1142.31 1915.83 1162.55 1915.83 1182.2 1910.85 1199.14 1900.87 1213.37 1890.9 1227.6 1876.97 1238.52 1859.07 1246.15 1841.18 1253.78 1820.35 1257.59 1796.59 1257.59 1771.95 1257.59 1750.39 1253.56 1731.91 1245.49 1713.43 1237.42 1699.13 1225.91 1689.01 1210.95 1678.89 1195.99 1673.83 1178.68 1673.83 1159.03L1673.83 1152.87C1673.83 1150.82 1674.42 1149.2 1675.59 1148.03 1676.77 1146.86 1678.38 1146.27 1680.43 1146.27L1748.63 1146.27C1750.69 1146.27 1752.3 1146.86 1753.47 1148.03 1754.65 1149.2 1755.23 1150.82 1755.23 1152.87L1755.23 1155.51C1755.23 1163.72 1759.56 1170.98 1768.21 1177.29 1776.87 1183.6 1788.38 1186.75 1802.75 1186.75 1813.61 1186.75 1821.38 1184.48 1826.07 1179.93 1830.77 1175.38 1833.11 1170.32 1833.11 1164.75 1833.11 1158.3 1830.18 1153.46 1824.31 1150.23 1818.45 1147 1807.74 1143.04 1792.19 1138.35L1779.43 1134.83C1750.39 1126.03 1726.05 1114.3 1706.39 1099.63 1686.74 1084.96 1676.91 1063.7 1676.91 1035.83 1676.91 1017.35 1681.9 1001 1691.87 986.771 1701.85 972.545 1715.56 961.618 1733.01 953.991 1750.47 946.365 1770.05 942.551 1791.75 942.551Z" fill="url(#fill7)" fill-rule="evenodd"/><text fill="#000000" fill-opacity="0" font-family="Arial,Arial_MSFontService,sans-serif" font-size="315.04" x="1030.99" y="1218.21">BITS &amp; BYTES</text><text fill="#ED3A54" font-family="Segoe UI Black,Segoe UI Black_MSFontService,sans-serif" font-weight="900" font-size="110" transform="matrix(1 0 0 1 1102.75 1459)">S&amp;C INDIA CAMPUS NEWSLETTER </text></g></svg>